<mxfile host="app.diagrams.net" agent="Mozilla/5.0 (Windows NT 10.0; Win64; x64) AppleWebKit/537.36 (KHTML, like Gecko) Chrome/129.0.0.0 Safari/537.36 Edg/129.0.0.0" version="24.7.16">
  <diagram name="Page-1" id="rVdA7bMz-BpUGJe7iywl">
    <mxGraphModel dx="2824" dy="1489" grid="1" gridSize="10" guides="1" tooltips="1" connect="1" arrows="1" fold="1" page="1" pageScale="1" pageWidth="1100" pageHeight="850" math="0" shadow="0">
      <root>
        <mxCell id="0" />
        <mxCell id="1" parent="0" />
        <mxCell id="av6EYxAeEGvF4ukuJv1E-22" style="edgeStyle=orthogonalEdgeStyle;rounded=0;orthogonalLoop=1;jettySize=auto;html=1;exitX=0.5;exitY=1;exitDx=0;exitDy=0;entryX=0.5;entryY=0;entryDx=0;entryDy=0;" parent="1" source="av6EYxAeEGvF4ukuJv1E-19" target="av6EYxAeEGvF4ukuJv1E-20" edge="1">
          <mxGeometry relative="1" as="geometry" />
        </mxCell>
        <mxCell id="av6EYxAeEGvF4ukuJv1E-19" value="start:&lt;br&gt;resetAll()&lt;br&gt;&lt;div&gt;&lt;br&gt;&lt;/div&gt;" style="rounded=0;whiteSpace=wrap;html=1;" parent="1" vertex="1">
          <mxGeometry x="570" y="50" width="140" height="60" as="geometry" />
        </mxCell>
        <mxCell id="av6EYxAeEGvF4ukuJv1E-23" style="edgeStyle=orthogonalEdgeStyle;rounded=0;orthogonalLoop=1;jettySize=auto;html=1;exitX=0;exitY=0.5;exitDx=0;exitDy=0;entryX=0;entryY=0.5;entryDx=0;entryDy=0;" parent="1" source="av6EYxAeEGvF4ukuJv1E-20" target="av6EYxAeEGvF4ukuJv1E-19" edge="1">
          <mxGeometry relative="1" as="geometry" />
        </mxCell>
        <mxCell id="av6EYxAeEGvF4ukuJv1E-24" value="FALSE" style="edgeLabel;html=1;align=center;verticalAlign=middle;resizable=0;points=[];" parent="av6EYxAeEGvF4ukuJv1E-23" connectable="0" vertex="1">
          <mxGeometry x="0.117" y="7" relative="1" as="geometry">
            <mxPoint x="7" as="offset" />
          </mxGeometry>
        </mxCell>
        <mxCell id="av6EYxAeEGvF4ukuJv1E-31" style="edgeStyle=orthogonalEdgeStyle;rounded=0;orthogonalLoop=1;jettySize=auto;html=1;exitX=0.5;exitY=1;exitDx=0;exitDy=0;" parent="1" source="av6EYxAeEGvF4ukuJv1E-20" target="av6EYxAeEGvF4ukuJv1E-30" edge="1">
          <mxGeometry relative="1" as="geometry" />
        </mxCell>
        <mxCell id="av6EYxAeEGvF4ukuJv1E-20" value="input == Ent" style="rhombus;whiteSpace=wrap;html=1;" parent="1" vertex="1">
          <mxGeometry x="600" y="140" width="80" height="80" as="geometry" />
        </mxCell>
        <mxCell id="av6EYxAeEGvF4ukuJv1E-42" style="edgeStyle=orthogonalEdgeStyle;rounded=0;orthogonalLoop=1;jettySize=auto;html=1;exitX=0.5;exitY=1;exitDx=0;exitDy=0;entryX=0.5;entryY=0;entryDx=0;entryDy=0;" parent="1" source="av6EYxAeEGvF4ukuJv1E-25" target="av6EYxAeEGvF4ukuJv1E-27" edge="1">
          <mxGeometry relative="1" as="geometry" />
        </mxCell>
        <mxCell id="av6EYxAeEGvF4ukuJv1E-25" value="selectAction:" style="rounded=0;whiteSpace=wrap;html=1;" parent="1" vertex="1">
          <mxGeometry x="580" y="330" width="120" height="60" as="geometry" />
        </mxCell>
        <mxCell id="av6EYxAeEGvF4ukuJv1E-35" style="edgeStyle=orthogonalEdgeStyle;rounded=0;orthogonalLoop=1;jettySize=auto;html=1;exitX=0;exitY=0.5;exitDx=0;exitDy=0;entryX=0.5;entryY=1;entryDx=0;entryDy=0;" parent="1" source="av6EYxAeEGvF4ukuJv1E-27" target="av6EYxAeEGvF4ukuJv1E-33" edge="1">
          <mxGeometry relative="1" as="geometry" />
        </mxCell>
        <mxCell id="av6EYxAeEGvF4ukuJv1E-43" style="edgeStyle=orthogonalEdgeStyle;rounded=0;orthogonalLoop=1;jettySize=auto;html=1;exitX=1;exitY=0;exitDx=0;exitDy=0;entryX=1;entryY=1;entryDx=0;entryDy=0;" parent="1" source="av6EYxAeEGvF4ukuJv1E-27" target="av6EYxAeEGvF4ukuJv1E-25" edge="1">
          <mxGeometry relative="1" as="geometry">
            <Array as="points">
              <mxPoint x="660" y="430" />
              <mxPoint x="700" y="430" />
            </Array>
          </mxGeometry>
        </mxCell>
        <mxCell id="av6EYxAeEGvF4ukuJv1E-46" style="edgeStyle=orthogonalEdgeStyle;rounded=0;orthogonalLoop=1;jettySize=auto;html=1;exitX=0.5;exitY=1;exitDx=0;exitDy=0;" parent="1" source="av6EYxAeEGvF4ukuJv1E-27" target="av6EYxAeEGvF4ukuJv1E-45" edge="1">
          <mxGeometry relative="1" as="geometry">
            <Array as="points">
              <mxPoint x="640" y="510" />
              <mxPoint x="120" y="510" />
            </Array>
          </mxGeometry>
        </mxCell>
        <mxCell id="av6EYxAeEGvF4ukuJv1E-54" value="Ent&amp;amp;&amp;amp;pointerMenu = 0" style="edgeLabel;html=1;align=center;verticalAlign=middle;resizable=0;points=[];" parent="av6EYxAeEGvF4ukuJv1E-46" connectable="0" vertex="1">
          <mxGeometry x="0.1819" y="1" relative="1" as="geometry">
            <mxPoint as="offset" />
          </mxGeometry>
        </mxCell>
        <mxCell id="av6EYxAeEGvF4ukuJv1E-115" style="edgeStyle=orthogonalEdgeStyle;rounded=0;orthogonalLoop=1;jettySize=auto;html=1;exitX=0.5;exitY=1;exitDx=0;exitDy=0;" parent="1" source="av6EYxAeEGvF4ukuJv1E-27" target="av6EYxAeEGvF4ukuJv1E-113" edge="1">
          <mxGeometry relative="1" as="geometry" />
        </mxCell>
        <mxCell id="av6EYxAeEGvF4ukuJv1E-132" style="edgeStyle=orthogonalEdgeStyle;rounded=0;orthogonalLoop=1;jettySize=auto;html=1;exitX=1;exitY=0.5;exitDx=0;exitDy=0;entryX=0.5;entryY=1;entryDx=0;entryDy=0;" parent="1" source="av6EYxAeEGvF4ukuJv1E-27" target="av6EYxAeEGvF4ukuJv1E-34" edge="1">
          <mxGeometry relative="1" as="geometry" />
        </mxCell>
        <mxCell id="av6EYxAeEGvF4ukuJv1E-142" style="edgeStyle=orthogonalEdgeStyle;rounded=0;orthogonalLoop=1;jettySize=auto;html=1;exitX=0.5;exitY=1;exitDx=0;exitDy=0;entryX=0.5;entryY=0;entryDx=0;entryDy=0;" parent="1" source="av6EYxAeEGvF4ukuJv1E-27" target="av6EYxAeEGvF4ukuJv1E-139" edge="1">
          <mxGeometry relative="1" as="geometry">
            <Array as="points">
              <mxPoint x="640" y="510" />
              <mxPoint x="860" y="510" />
            </Array>
          </mxGeometry>
        </mxCell>
        <mxCell id="av6EYxAeEGvF4ukuJv1E-143" style="edgeStyle=orthogonalEdgeStyle;rounded=0;orthogonalLoop=1;jettySize=auto;html=1;exitX=0.5;exitY=1;exitDx=0;exitDy=0;entryX=0.5;entryY=0;entryDx=0;entryDy=0;" parent="1" source="av6EYxAeEGvF4ukuJv1E-27" target="av6EYxAeEGvF4ukuJv1E-140" edge="1">
          <mxGeometry relative="1" as="geometry">
            <Array as="points">
              <mxPoint x="640" y="510" />
              <mxPoint x="1080" y="510" />
            </Array>
          </mxGeometry>
        </mxCell>
        <mxCell id="av6EYxAeEGvF4ukuJv1E-27" value="input" style="rhombus;whiteSpace=wrap;html=1;" parent="1" vertex="1">
          <mxGeometry x="600" y="420" width="80" height="80" as="geometry" />
        </mxCell>
        <mxCell id="av6EYxAeEGvF4ukuJv1E-32" style="edgeStyle=orthogonalEdgeStyle;rounded=0;orthogonalLoop=1;jettySize=auto;html=1;exitX=0.5;exitY=1;exitDx=0;exitDy=0;entryX=0.5;entryY=0;entryDx=0;entryDy=0;" parent="1" source="av6EYxAeEGvF4ukuJv1E-30" target="av6EYxAeEGvF4ukuJv1E-25" edge="1">
          <mxGeometry relative="1" as="geometry" />
        </mxCell>
        <mxCell id="av6EYxAeEGvF4ukuJv1E-30" value="pointerMenu = 0" style="ellipse;whiteSpace=wrap;html=1;" parent="1" vertex="1">
          <mxGeometry x="587.5" y="250" width="105" height="40" as="geometry" />
        </mxCell>
        <mxCell id="av6EYxAeEGvF4ukuJv1E-38" style="edgeStyle=orthogonalEdgeStyle;rounded=0;orthogonalLoop=1;jettySize=auto;html=1;exitX=1;exitY=0.5;exitDx=0;exitDy=0;" parent="1" source="av6EYxAeEGvF4ukuJv1E-33" target="av6EYxAeEGvF4ukuJv1E-25" edge="1">
          <mxGeometry relative="1" as="geometry" />
        </mxCell>
        <mxCell id="av6EYxAeEGvF4ukuJv1E-33" value="pointerMenu = pointerDown()" style="ellipse;whiteSpace=wrap;html=1;" parent="1" vertex="1">
          <mxGeometry x="350" y="340" width="185" height="40" as="geometry" />
        </mxCell>
        <mxCell id="av6EYxAeEGvF4ukuJv1E-39" style="edgeStyle=orthogonalEdgeStyle;rounded=0;orthogonalLoop=1;jettySize=auto;html=1;exitX=0;exitY=0.5;exitDx=0;exitDy=0;entryX=1;entryY=0.5;entryDx=0;entryDy=0;" parent="1" source="av6EYxAeEGvF4ukuJv1E-34" target="av6EYxAeEGvF4ukuJv1E-25" edge="1">
          <mxGeometry relative="1" as="geometry" />
        </mxCell>
        <mxCell id="av6EYxAeEGvF4ukuJv1E-34" value="pointerMenu = pointerUp()" style="ellipse;whiteSpace=wrap;html=1;" parent="1" vertex="1">
          <mxGeometry x="760" y="340" width="175" height="40" as="geometry" />
        </mxCell>
        <mxCell id="av6EYxAeEGvF4ukuJv1E-194" style="edgeStyle=orthogonalEdgeStyle;rounded=0;orthogonalLoop=1;jettySize=auto;html=1;exitX=0.5;exitY=1;exitDx=0;exitDy=0;entryX=0.5;entryY=0;entryDx=0;entryDy=0;" parent="1" source="av6EYxAeEGvF4ukuJv1E-45" target="av6EYxAeEGvF4ukuJv1E-191" edge="1">
          <mxGeometry relative="1" as="geometry" />
        </mxCell>
        <mxCell id="av6EYxAeEGvF4ukuJv1E-45" value="DelayUpdate = 0&lt;br&gt;mode = follow&lt;br&gt;askUpdateServo = TRUE" style="ellipse;whiteSpace=wrap;html=1;" parent="1" vertex="1">
          <mxGeometry x="19.9" y="530" width="200.1" height="60" as="geometry" />
        </mxCell>
        <mxCell id="av6EYxAeEGvF4ukuJv1E-193" style="edgeStyle=orthogonalEdgeStyle;rounded=0;orthogonalLoop=1;jettySize=auto;html=1;exitX=0;exitY=0.5;exitDx=0;exitDy=0;entryX=1;entryY=0.5;entryDx=0;entryDy=0;" parent="1" source="av6EYxAeEGvF4ukuJv1E-102" target="av6EYxAeEGvF4ukuJv1E-191" edge="1">
          <mxGeometry relative="1" as="geometry" />
        </mxCell>
        <mxCell id="av6EYxAeEGvF4ukuJv1E-102" value="DelayUpdate = DelayRepeat&lt;br&gt;n= 0&lt;br&gt;askUpdateServo = TRUE" style="ellipse;whiteSpace=wrap;html=1;" parent="1" vertex="1">
          <mxGeometry x="280" y="600" width="200" height="80" as="geometry" />
        </mxCell>
        <mxCell id="av6EYxAeEGvF4ukuJv1E-124" style="edgeStyle=orthogonalEdgeStyle;rounded=0;orthogonalLoop=1;jettySize=auto;html=1;exitX=0.5;exitY=1;exitDx=0;exitDy=0;" parent="1" source="av6EYxAeEGvF4ukuJv1E-113" target="av6EYxAeEGvF4ukuJv1E-123" edge="1">
          <mxGeometry relative="1" as="geometry" />
        </mxCell>
        <mxCell id="av6EYxAeEGvF4ukuJv1E-113" value="askNumberWait:" style="rounded=0;whiteSpace=wrap;html=1;" parent="1" vertex="1">
          <mxGeometry x="580" y="644.97" width="120" height="60" as="geometry" />
        </mxCell>
        <mxCell id="av6EYxAeEGvF4ukuJv1E-133" style="edgeStyle=orthogonalEdgeStyle;rounded=0;orthogonalLoop=1;jettySize=auto;html=1;exitX=0;exitY=0.5;exitDx=0;exitDy=0;entryX=0;entryY=0.5;entryDx=0;entryDy=0;" parent="1" source="av6EYxAeEGvF4ukuJv1E-123" target="av6EYxAeEGvF4ukuJv1E-113" edge="1">
          <mxGeometry relative="1" as="geometry">
            <Array as="points">
              <mxPoint x="550" y="774.97" />
              <mxPoint x="550" y="674.97" />
            </Array>
          </mxGeometry>
        </mxCell>
        <mxCell id="av6EYxAeEGvF4ukuJv1E-149" value="askNumber" style="edgeLabel;html=1;align=center;verticalAlign=middle;resizable=0;points=[];" parent="av6EYxAeEGvF4ukuJv1E-133" connectable="0" vertex="1">
          <mxGeometry x="-0.1099" y="3" relative="1" as="geometry">
            <mxPoint as="offset" />
          </mxGeometry>
        </mxCell>
        <mxCell id="av6EYxAeEGvF4ukuJv1E-134" style="edgeStyle=orthogonalEdgeStyle;rounded=0;orthogonalLoop=1;jettySize=auto;html=1;exitX=0;exitY=1;exitDx=0;exitDy=0;entryX=0.5;entryY=1;entryDx=0;entryDy=0;" parent="1" source="av6EYxAeEGvF4ukuJv1E-123" target="av6EYxAeEGvF4ukuJv1E-102" edge="1">
          <mxGeometry relative="1" as="geometry">
            <mxPoint x="380" y="684.97" as="targetPoint" />
            <Array as="points">
              <mxPoint x="640" y="795" />
              <mxPoint x="640" y="835" />
              <mxPoint x="380" y="835" />
            </Array>
          </mxGeometry>
        </mxCell>
        <mxCell id="av6EYxAeEGvF4ukuJv1E-135" value="~askNumber&amp;amp;&amp;amp;Repeat" style="edgeLabel;html=1;align=center;verticalAlign=middle;resizable=0;points=[];" parent="av6EYxAeEGvF4ukuJv1E-134" connectable="0" vertex="1">
          <mxGeometry x="-0.1684" y="3" relative="1" as="geometry">
            <mxPoint x="29" y="-3" as="offset" />
          </mxGeometry>
        </mxCell>
        <mxCell id="av6EYxAeEGvF4ukuJv1E-281" style="edgeStyle=orthogonalEdgeStyle;rounded=0;orthogonalLoop=1;jettySize=auto;html=1;exitX=0.5;exitY=1;exitDx=0;exitDy=0;" parent="1" source="av6EYxAeEGvF4ukuJv1E-299" target="av6EYxAeEGvF4ukuJv1E-280" edge="1">
          <mxGeometry relative="1" as="geometry" />
        </mxCell>
        <mxCell id="av6EYxAeEGvF4ukuJv1E-286" style="edgeStyle=orthogonalEdgeStyle;rounded=0;orthogonalLoop=1;jettySize=auto;html=1;exitX=1;exitY=0.5;exitDx=0;exitDy=0;entryX=0;entryY=0.5;entryDx=0;entryDy=0;" parent="1" source="av6EYxAeEGvF4ukuJv1E-287" target="av6EYxAeEGvF4ukuJv1E-283" edge="1">
          <mxGeometry relative="1" as="geometry">
            <Array as="points">
              <mxPoint x="790" y="775" />
              <mxPoint x="790" y="675" />
            </Array>
          </mxGeometry>
        </mxCell>
        <mxCell id="av6EYxAeEGvF4ukuJv1E-123" value="askNumber,mode" style="rhombus;whiteSpace=wrap;html=1;" parent="1" vertex="1">
          <mxGeometry x="560" y="734.97" width="160" height="80" as="geometry" />
        </mxCell>
        <mxCell id="av6EYxAeEGvF4ukuJv1E-137" value="mode = Repeat&lt;br&gt;askNumberEnd = TRUE" style="ellipse;whiteSpace=wrap;html=1;" parent="1" vertex="1">
          <mxGeometry x="550" y="550" width="180" height="40" as="geometry" />
        </mxCell>
        <mxCell id="av6EYxAeEGvF4ukuJv1E-146" style="edgeStyle=orthogonalEdgeStyle;rounded=0;orthogonalLoop=1;jettySize=auto;html=1;exitX=0.5;exitY=1;exitDx=0;exitDy=0;entryX=0.5;entryY=0;entryDx=0;entryDy=0;" parent="1" source="av6EYxAeEGvF4ukuJv1E-139" target="av6EYxAeEGvF4ukuJv1E-113" edge="1">
          <mxGeometry relative="1" as="geometry" />
        </mxCell>
        <mxCell id="av6EYxAeEGvF4ukuJv1E-139" value="mode = saveDelay&lt;br&gt;askNumberEnd = TRUE" style="ellipse;whiteSpace=wrap;html=1;" parent="1" vertex="1">
          <mxGeometry x="770" y="550" width="180" height="40" as="geometry" />
        </mxCell>
        <mxCell id="av6EYxAeEGvF4ukuJv1E-147" style="edgeStyle=orthogonalEdgeStyle;rounded=0;orthogonalLoop=1;jettySize=auto;html=1;exitX=0.5;exitY=1;exitDx=0;exitDy=0;entryX=0.5;entryY=0;entryDx=0;entryDy=0;" parent="1" source="av6EYxAeEGvF4ukuJv1E-140" target="av6EYxAeEGvF4ukuJv1E-113" edge="1">
          <mxGeometry relative="1" as="geometry">
            <Array as="points">
              <mxPoint x="1080" y="617" />
              <mxPoint x="640" y="617" />
            </Array>
          </mxGeometry>
        </mxCell>
        <mxCell id="av6EYxAeEGvF4ukuJv1E-140" value="mode = learn&lt;br&gt;askNumberEnd = TRUE" style="ellipse;whiteSpace=wrap;html=1;" parent="1" vertex="1">
          <mxGeometry x="990" y="550" width="180" height="40" as="geometry" />
        </mxCell>
        <mxCell id="av6EYxAeEGvF4ukuJv1E-176" style="edgeStyle=orthogonalEdgeStyle;rounded=0;orthogonalLoop=1;jettySize=auto;html=1;exitX=0.5;exitY=1;exitDx=0;exitDy=0;entryX=0.5;entryY=0;entryDx=0;entryDy=0;" parent="1" source="av6EYxAeEGvF4ukuJv1E-177" target="av6EYxAeEGvF4ukuJv1E-185" edge="1">
          <mxGeometry relative="1" as="geometry" />
        </mxCell>
        <mxCell id="av6EYxAeEGvF4ukuJv1E-177" value="updateServo:&lt;br&gt;temp = 0&lt;br&gt;servoAngle = mapPulse(mode)" style="rounded=0;whiteSpace=wrap;html=1;" parent="1" vertex="1">
          <mxGeometry x="-470.1" y="254.97" width="220.1" height="60" as="geometry" />
        </mxCell>
        <mxCell id="av6EYxAeEGvF4ukuJv1E-178" style="edgeStyle=orthogonalEdgeStyle;rounded=0;orthogonalLoop=1;jettySize=auto;html=1;exitX=0;exitY=0.5;exitDx=0;exitDy=0;entryX=0;entryY=0.5;entryDx=0;entryDy=0;" parent="1" source="av6EYxAeEGvF4ukuJv1E-183" target="av6EYxAeEGvF4ukuJv1E-177" edge="1">
          <mxGeometry relative="1" as="geometry">
            <Array as="points">
              <mxPoint x="-500" y="540" />
              <mxPoint x="-500" y="285" />
            </Array>
          </mxGeometry>
        </mxCell>
        <mxCell id="av6EYxAeEGvF4ukuJv1E-179" value="FALSE" style="edgeLabel;html=1;align=center;verticalAlign=middle;resizable=0;points=[];" parent="av6EYxAeEGvF4ukuJv1E-178" connectable="0" vertex="1">
          <mxGeometry x="-0.1375" y="-1" relative="1" as="geometry">
            <mxPoint y="-23" as="offset" />
          </mxGeometry>
        </mxCell>
        <mxCell id="av6EYxAeEGvF4ukuJv1E-212" style="edgeStyle=orthogonalEdgeStyle;rounded=0;orthogonalLoop=1;jettySize=auto;html=1;exitX=1;exitY=0.5;exitDx=0;exitDy=0;entryX=0.5;entryY=1;entryDx=0;entryDy=0;" parent="1" source="av6EYxAeEGvF4ukuJv1E-183" target="av6EYxAeEGvF4ukuJv1E-208" edge="1">
          <mxGeometry relative="1" as="geometry" />
        </mxCell>
        <mxCell id="av6EYxAeEGvF4ukuJv1E-183" value="temp&amp;lt;DelayUpdate" style="rhombus;whiteSpace=wrap;html=1;" parent="1" vertex="1">
          <mxGeometry x="-430.05" y="520" width="140" height="40" as="geometry" />
        </mxCell>
        <mxCell id="av6EYxAeEGvF4ukuJv1E-217" style="edgeStyle=orthogonalEdgeStyle;rounded=0;orthogonalLoop=1;jettySize=auto;html=1;exitX=0.5;exitY=1;exitDx=0;exitDy=0;entryX=0.5;entryY=0;entryDx=0;entryDy=0;" parent="1" source="av6EYxAeEGvF4ukuJv1E-185" target="av6EYxAeEGvF4ukuJv1E-214" edge="1">
          <mxGeometry relative="1" as="geometry" />
        </mxCell>
        <mxCell id="av6EYxAeEGvF4ukuJv1E-185" value="waitTemp:" style="rounded=0;whiteSpace=wrap;html=1;" parent="1" vertex="1">
          <mxGeometry x="-420.05" y="354.97" width="120" height="60" as="geometry" />
        </mxCell>
        <mxCell id="av6EYxAeEGvF4ukuJv1E-196" style="edgeStyle=orthogonalEdgeStyle;rounded=0;orthogonalLoop=1;jettySize=auto;html=1;exitX=0.5;exitY=1;exitDx=0;exitDy=0;entryX=0.5;entryY=0;entryDx=0;entryDy=0;" parent="1" source="av6EYxAeEGvF4ukuJv1E-191" target="av6EYxAeEGvF4ukuJv1E-195" edge="1">
          <mxGeometry relative="1" as="geometry" />
        </mxCell>
        <mxCell id="av6EYxAeEGvF4ukuJv1E-191" value="&lt;div&gt;updateServoWait:&lt;/div&gt;" style="rounded=0;whiteSpace=wrap;html=1;" parent="1" vertex="1">
          <mxGeometry x="59.94999999999999" y="610" width="120" height="60" as="geometry" />
        </mxCell>
        <mxCell id="av6EYxAeEGvF4ukuJv1E-198" style="edgeStyle=orthogonalEdgeStyle;rounded=0;orthogonalLoop=1;jettySize=auto;html=1;exitX=0.5;exitY=1;exitDx=0;exitDy=0;entryX=0.5;entryY=0;entryDx=0;entryDy=0;" parent="1" source="av6EYxAeEGvF4ukuJv1E-195" target="av6EYxAeEGvF4ukuJv1E-197" edge="1">
          <mxGeometry relative="1" as="geometry" />
        </mxCell>
        <mxCell id="av6EYxAeEGvF4ukuJv1E-199" style="edgeStyle=orthogonalEdgeStyle;rounded=0;orthogonalLoop=1;jettySize=auto;html=1;exitX=0;exitY=0.5;exitDx=0;exitDy=0;entryX=0;entryY=0.5;entryDx=0;entryDy=0;" parent="1" source="av6EYxAeEGvF4ukuJv1E-195" target="av6EYxAeEGvF4ukuJv1E-191" edge="1">
          <mxGeometry relative="1" as="geometry" />
        </mxCell>
        <mxCell id="av6EYxAeEGvF4ukuJv1E-195" value="askUpdateServo" style="rhombus;whiteSpace=wrap;html=1;" parent="1" vertex="1">
          <mxGeometry x="49.94999999999999" y="694.97" width="140" height="40" as="geometry" />
        </mxCell>
        <mxCell id="av6EYxAeEGvF4ukuJv1E-197" value="selectAction" style="ellipse;whiteSpace=wrap;html=1;aspect=fixed;" parent="1" vertex="1">
          <mxGeometry x="84.94999999999999" y="830" width="70" height="70" as="geometry" />
        </mxCell>
        <mxCell id="av6EYxAeEGvF4ukuJv1E-200" value="askUpdateServo = FALSE" style="ellipse;whiteSpace=wrap;html=1;" parent="1" vertex="1">
          <mxGeometry x="20" y="754.97" width="200" height="40" as="geometry" />
        </mxCell>
        <mxCell id="av6EYxAeEGvF4ukuJv1E-213" style="edgeStyle=orthogonalEdgeStyle;rounded=0;orthogonalLoop=1;jettySize=auto;html=1;exitX=0.5;exitY=0;exitDx=0;exitDy=0;entryX=1;entryY=0.5;entryDx=0;entryDy=0;" parent="1" source="av6EYxAeEGvF4ukuJv1E-208" target="av6EYxAeEGvF4ukuJv1E-185" edge="1">
          <mxGeometry relative="1" as="geometry" />
        </mxCell>
        <mxCell id="av6EYxAeEGvF4ukuJv1E-208" value="temp++" style="ellipse;whiteSpace=wrap;html=1;" parent="1" vertex="1">
          <mxGeometry x="-270" y="405" width="95" height="40" as="geometry" />
        </mxCell>
        <mxCell id="av6EYxAeEGvF4ukuJv1E-216" style="edgeStyle=orthogonalEdgeStyle;rounded=0;orthogonalLoop=1;jettySize=auto;html=1;exitX=0.5;exitY=1;exitDx=0;exitDy=0;" parent="1" source="av6EYxAeEGvF4ukuJv1E-214" target="av6EYxAeEGvF4ukuJv1E-183" edge="1">
          <mxGeometry relative="1" as="geometry" />
        </mxCell>
        <mxCell id="av6EYxAeEGvF4ukuJv1E-219" style="edgeStyle=orthogonalEdgeStyle;rounded=0;orthogonalLoop=1;jettySize=auto;html=1;exitX=0.5;exitY=0;exitDx=0;exitDy=0;entryX=1;entryY=0.5;entryDx=0;entryDy=0;" parent="1" source="av6EYxAeEGvF4ukuJv1E-269" target="av6EYxAeEGvF4ukuJv1E-218" edge="1">
          <mxGeometry relative="1" as="geometry">
            <Array as="points">
              <mxPoint x="-160" y="265" />
              <mxPoint x="-160" y="100" />
            </Array>
          </mxGeometry>
        </mxCell>
        <mxCell id="av6EYxAeEGvF4ukuJv1E-272" style="edgeStyle=orthogonalEdgeStyle;rounded=0;orthogonalLoop=1;jettySize=auto;html=1;exitX=1;exitY=0.5;exitDx=0;exitDy=0;entryX=0.5;entryY=1;entryDx=0;entryDy=0;" parent="1" source="av6EYxAeEGvF4ukuJv1E-214" target="av6EYxAeEGvF4ukuJv1E-269" edge="1">
          <mxGeometry relative="1" as="geometry" />
        </mxCell>
        <mxCell id="av6EYxAeEGvF4ukuJv1E-214" value="input" style="rhombus;whiteSpace=wrap;html=1;" parent="1" vertex="1">
          <mxGeometry x="-430.05" y="450" width="140" height="40" as="geometry" />
        </mxCell>
        <mxCell id="av6EYxAeEGvF4ukuJv1E-220" style="edgeStyle=orthogonalEdgeStyle;rounded=0;orthogonalLoop=1;jettySize=auto;html=1;exitX=0.5;exitY=1;exitDx=0;exitDy=0;" parent="1" source="av6EYxAeEGvF4ukuJv1E-218" edge="1">
          <mxGeometry relative="1" as="geometry">
            <mxPoint x="-360.1176470588234" y="160" as="targetPoint" />
          </mxGeometry>
        </mxCell>
        <mxCell id="av6EYxAeEGvF4ukuJv1E-218" value="idle:" style="rounded=0;whiteSpace=wrap;html=1;" parent="1" vertex="1">
          <mxGeometry x="-390.1" y="80" width="60.1" height="40" as="geometry" />
        </mxCell>
        <mxCell id="av6EYxAeEGvF4ukuJv1E-222" style="edgeStyle=orthogonalEdgeStyle;rounded=0;orthogonalLoop=1;jettySize=auto;html=1;exitX=0.5;exitY=1;exitDx=0;exitDy=0;" parent="1" source="av6EYxAeEGvF4ukuJv1E-221" edge="1">
          <mxGeometry relative="1" as="geometry">
            <mxPoint x="-360.1176470588234" y="250" as="targetPoint" />
          </mxGeometry>
        </mxCell>
        <mxCell id="av6EYxAeEGvF4ukuJv1E-223" style="edgeStyle=orthogonalEdgeStyle;rounded=0;orthogonalLoop=1;jettySize=auto;html=1;exitX=0;exitY=0.5;exitDx=0;exitDy=0;entryX=0;entryY=0.5;entryDx=0;entryDy=0;" parent="1" source="av6EYxAeEGvF4ukuJv1E-221" target="av6EYxAeEGvF4ukuJv1E-218" edge="1">
          <mxGeometry relative="1" as="geometry" />
        </mxCell>
        <mxCell id="av6EYxAeEGvF4ukuJv1E-221" value="askUpdateServo" style="rhombus;whiteSpace=wrap;html=1;" parent="1" vertex="1">
          <mxGeometry x="-430.05" y="160" width="140" height="40" as="geometry" />
        </mxCell>
        <mxCell id="av6EYxAeEGvF4ukuJv1E-228" style="edgeStyle=orthogonalEdgeStyle;rounded=0;orthogonalLoop=1;jettySize=auto;html=1;exitX=0.5;exitY=1;exitDx=0;exitDy=0;entryX=0.5;entryY=0;entryDx=0;entryDy=0;" parent="1" source="av6EYxAeEGvF4ukuJv1E-225" target="av6EYxAeEGvF4ukuJv1E-226" edge="1">
          <mxGeometry relative="1" as="geometry" />
        </mxCell>
        <mxCell id="av6EYxAeEGvF4ukuJv1E-225" value="idle:" style="rounded=0;whiteSpace=wrap;html=1;" parent="1" vertex="1">
          <mxGeometry x="-800" y="80" width="60" height="40" as="geometry" />
        </mxCell>
        <mxCell id="av6EYxAeEGvF4ukuJv1E-229" style="edgeStyle=orthogonalEdgeStyle;rounded=0;orthogonalLoop=1;jettySize=auto;html=1;exitX=0;exitY=0.5;exitDx=0;exitDy=0;entryX=0;entryY=0.5;entryDx=0;entryDy=0;" parent="1" source="av6EYxAeEGvF4ukuJv1E-226" target="av6EYxAeEGvF4ukuJv1E-225" edge="1">
          <mxGeometry relative="1" as="geometry" />
        </mxCell>
        <mxCell id="av6EYxAeEGvF4ukuJv1E-261" style="edgeStyle=orthogonalEdgeStyle;rounded=0;orthogonalLoop=1;jettySize=auto;html=1;exitX=0.5;exitY=1;exitDx=0;exitDy=0;entryX=0.5;entryY=0;entryDx=0;entryDy=0;" parent="1" source="av6EYxAeEGvF4ukuJv1E-226" target="av6EYxAeEGvF4ukuJv1E-230" edge="1">
          <mxGeometry relative="1" as="geometry" />
        </mxCell>
        <mxCell id="av6EYxAeEGvF4ukuJv1E-226" value="askNumber" style="rhombus;whiteSpace=wrap;html=1;" parent="1" vertex="1">
          <mxGeometry x="-840" y="150" width="140" height="40" as="geometry" />
        </mxCell>
        <mxCell id="av6EYxAeEGvF4ukuJv1E-241" style="edgeStyle=orthogonalEdgeStyle;rounded=0;orthogonalLoop=1;jettySize=auto;html=1;exitX=0.5;exitY=1;exitDx=0;exitDy=0;" parent="1" source="av6EYxAeEGvF4ukuJv1E-230" target="av6EYxAeEGvF4ukuJv1E-239" edge="1">
          <mxGeometry relative="1" as="geometry" />
        </mxCell>
        <mxCell id="av6EYxAeEGvF4ukuJv1E-230" value="waitNumberKey:" style="rounded=0;whiteSpace=wrap;html=1;" parent="1" vertex="1">
          <mxGeometry x="-830" y="310" width="120" height="60" as="geometry" />
        </mxCell>
        <mxCell id="av6EYxAeEGvF4ukuJv1E-242" style="edgeStyle=orthogonalEdgeStyle;rounded=0;orthogonalLoop=1;jettySize=auto;html=1;exitX=0;exitY=0.5;exitDx=0;exitDy=0;entryX=0;entryY=0.5;entryDx=0;entryDy=0;" parent="1" source="av6EYxAeEGvF4ukuJv1E-239" target="av6EYxAeEGvF4ukuJv1E-230" edge="1">
          <mxGeometry relative="1" as="geometry" />
        </mxCell>
        <mxCell id="av6EYxAeEGvF4ukuJv1E-243" value="~isNumber(input)" style="edgeLabel;html=1;align=center;verticalAlign=middle;resizable=0;points=[];" parent="av6EYxAeEGvF4ukuJv1E-242" connectable="0" vertex="1">
          <mxGeometry x="-0.0564" y="1" relative="1" as="geometry">
            <mxPoint as="offset" />
          </mxGeometry>
        </mxCell>
        <mxCell id="av6EYxAeEGvF4ukuJv1E-249" style="edgeStyle=orthogonalEdgeStyle;rounded=0;orthogonalLoop=1;jettySize=auto;html=1;exitX=1;exitY=0.5;exitDx=0;exitDy=0;entryX=0;entryY=0.5;entryDx=0;entryDy=0;" parent="1" source="av6EYxAeEGvF4ukuJv1E-239" target="av6EYxAeEGvF4ukuJv1E-248" edge="1">
          <mxGeometry relative="1" as="geometry" />
        </mxCell>
        <mxCell id="av6EYxAeEGvF4ukuJv1E-258" style="edgeStyle=orthogonalEdgeStyle;rounded=0;orthogonalLoop=1;jettySize=auto;html=1;exitX=0.5;exitY=1;exitDx=0;exitDy=0;entryX=0.5;entryY=0;entryDx=0;entryDy=0;" parent="1" source="av6EYxAeEGvF4ukuJv1E-239" target="av6EYxAeEGvF4ukuJv1E-257" edge="1">
          <mxGeometry relative="1" as="geometry" />
        </mxCell>
        <mxCell id="av6EYxAeEGvF4ukuJv1E-239" value="input" style="rhombus;whiteSpace=wrap;html=1;" parent="1" vertex="1">
          <mxGeometry x="-810" y="405" width="80" height="40" as="geometry" />
        </mxCell>
        <mxCell id="av6EYxAeEGvF4ukuJv1E-250" style="edgeStyle=orthogonalEdgeStyle;rounded=0;orthogonalLoop=1;jettySize=auto;html=1;exitX=0.5;exitY=0;exitDx=0;exitDy=0;entryX=1;entryY=0.5;entryDx=0;entryDy=0;" parent="1" source="av6EYxAeEGvF4ukuJv1E-248" target="av6EYxAeEGvF4ukuJv1E-230" edge="1">
          <mxGeometry relative="1" as="geometry" />
        </mxCell>
        <mxCell id="av6EYxAeEGvF4ukuJv1E-248" value="numberArray[digit++] = input2Number()" style="ellipse;whiteSpace=wrap;html=1;" parent="1" vertex="1">
          <mxGeometry x="-710" y="405" width="165" height="40" as="geometry" />
        </mxCell>
        <mxCell id="av6EYxAeEGvF4ukuJv1E-264" style="edgeStyle=orthogonalEdgeStyle;rounded=0;orthogonalLoop=1;jettySize=auto;html=1;exitX=0.5;exitY=1;exitDx=0;exitDy=0;entryX=0.5;entryY=0;entryDx=0;entryDy=0;" parent="1" source="av6EYxAeEGvF4ukuJv1E-257" target="av6EYxAeEGvF4ukuJv1E-263" edge="1">
          <mxGeometry relative="1" as="geometry" />
        </mxCell>
        <mxCell id="av6EYxAeEGvF4ukuJv1E-257" value="checkNumber:&lt;br&gt;number = str2int(numberArray,n)" style="rounded=0;whiteSpace=wrap;html=1;" parent="1" vertex="1">
          <mxGeometry x="-840" y="470" width="140" height="60" as="geometry" />
        </mxCell>
        <mxCell id="av6EYxAeEGvF4ukuJv1E-259" value="n = 0" style="ellipse;whiteSpace=wrap;html=1;" parent="1" vertex="1">
          <mxGeometry x="-817.5" y="220" width="95" height="40" as="geometry" />
        </mxCell>
        <mxCell id="av6EYxAeEGvF4ukuJv1E-266" style="edgeStyle=orthogonalEdgeStyle;rounded=0;orthogonalLoop=1;jettySize=auto;html=1;exitX=0.5;exitY=0;exitDx=0;exitDy=0;entryX=0;entryY=0.5;entryDx=0;entryDy=0;" parent="1" source="av6EYxAeEGvF4ukuJv1E-262" target="av6EYxAeEGvF4ukuJv1E-230" edge="1">
          <mxGeometry relative="1" as="geometry" />
        </mxCell>
        <mxCell id="av6EYxAeEGvF4ukuJv1E-262" value="n = 0" style="ellipse;whiteSpace=wrap;html=1;" parent="1" vertex="1">
          <mxGeometry x="-1000" y="430" width="95" height="40" as="geometry" />
        </mxCell>
        <mxCell id="av6EYxAeEGvF4ukuJv1E-265" style="edgeStyle=orthogonalEdgeStyle;rounded=0;orthogonalLoop=1;jettySize=auto;html=1;exitX=0;exitY=0.5;exitDx=0;exitDy=0;entryX=0.5;entryY=1;entryDx=0;entryDy=0;" parent="1" source="av6EYxAeEGvF4ukuJv1E-263" target="av6EYxAeEGvF4ukuJv1E-262" edge="1">
          <mxGeometry relative="1" as="geometry" />
        </mxCell>
        <mxCell id="av6EYxAeEGvF4ukuJv1E-275" style="edgeStyle=orthogonalEdgeStyle;rounded=0;orthogonalLoop=1;jettySize=auto;html=1;exitX=0.5;exitY=1;exitDx=0;exitDy=0;entryX=0.5;entryY=0;entryDx=0;entryDy=0;" parent="1" source="av6EYxAeEGvF4ukuJv1E-263" target="av6EYxAeEGvF4ukuJv1E-273" edge="1">
          <mxGeometry relative="1" as="geometry" />
        </mxCell>
        <mxCell id="av6EYxAeEGvF4ukuJv1E-263" value="validNumber(number,mode)" style="rhombus;whiteSpace=wrap;html=1;" parent="1" vertex="1">
          <mxGeometry x="-870" y="560" width="200" height="40" as="geometry" />
        </mxCell>
        <mxCell id="av6EYxAeEGvF4ukuJv1E-277" style="edgeStyle=orthogonalEdgeStyle;rounded=0;orthogonalLoop=1;jettySize=auto;html=1;exitX=0.5;exitY=0;exitDx=0;exitDy=0;entryX=0;entryY=0.5;entryDx=0;entryDy=0;" parent="1" source="av6EYxAeEGvF4ukuJv1E-268" target="av6EYxAeEGvF4ukuJv1E-225" edge="1">
          <mxGeometry relative="1" as="geometry" />
        </mxCell>
        <mxCell id="av6EYxAeEGvF4ukuJv1E-268" value="askNumber = FALSE" style="ellipse;whiteSpace=wrap;html=1;" parent="1" vertex="1">
          <mxGeometry x="-1080" y="320" width="95" height="40" as="geometry" />
        </mxCell>
        <mxCell id="av6EYxAeEGvF4ukuJv1E-269" value="askUpdateServo = FALSE" style="ellipse;whiteSpace=wrap;html=1;" parent="1" vertex="1">
          <mxGeometry x="-210" y="264.97" width="95" height="40" as="geometry" />
        </mxCell>
        <mxCell id="av6EYxAeEGvF4ukuJv1E-278" style="edgeStyle=orthogonalEdgeStyle;rounded=0;orthogonalLoop=1;jettySize=auto;html=1;exitX=0;exitY=0.5;exitDx=0;exitDy=0;entryX=0.5;entryY=1;entryDx=0;entryDy=0;" parent="1" source="av6EYxAeEGvF4ukuJv1E-273" target="av6EYxAeEGvF4ukuJv1E-268" edge="1">
          <mxGeometry relative="1" as="geometry" />
        </mxCell>
        <mxCell id="av6EYxAeEGvF4ukuJv1E-273" value="useNumber:&lt;br&gt;updateData(number)" style="rounded=0;whiteSpace=wrap;html=1;" parent="1" vertex="1">
          <mxGeometry x="-830" y="620" width="120" height="60" as="geometry" />
        </mxCell>
        <mxCell id="av6EYxAeEGvF4ukuJv1E-280" value="selectAction" style="ellipse;whiteSpace=wrap;html=1;aspect=fixed;" parent="1" vertex="1">
          <mxGeometry x="605" y="990" width="70" height="70" as="geometry" />
        </mxCell>
        <mxCell id="av6EYxAeEGvF4ukuJv1E-285" style="edgeStyle=orthogonalEdgeStyle;rounded=0;orthogonalLoop=1;jettySize=auto;html=1;exitX=0.5;exitY=1;exitDx=0;exitDy=0;entryX=0.5;entryY=0;entryDx=0;entryDy=0;" parent="1" source="av6EYxAeEGvF4ukuJv1E-283" target="av6EYxAeEGvF4ukuJv1E-284" edge="1">
          <mxGeometry relative="1" as="geometry" />
        </mxCell>
        <mxCell id="av6EYxAeEGvF4ukuJv1E-283" value="learnNumber:" style="rounded=0;whiteSpace=wrap;html=1;" parent="1" vertex="1">
          <mxGeometry x="870" y="644.97" width="120" height="60" as="geometry" />
        </mxCell>
        <mxCell id="av6EYxAeEGvF4ukuJv1E-293" style="edgeStyle=orthogonalEdgeStyle;rounded=0;orthogonalLoop=1;jettySize=auto;html=1;exitX=0.5;exitY=1;exitDx=0;exitDy=0;entryX=0.5;entryY=0;entryDx=0;entryDy=0;" parent="1" source="av6EYxAeEGvF4ukuJv1E-284" target="av6EYxAeEGvF4ukuJv1E-292" edge="1">
          <mxGeometry relative="1" as="geometry" />
        </mxCell>
        <mxCell id="av6EYxAeEGvF4ukuJv1E-297" style="edgeStyle=orthogonalEdgeStyle;rounded=0;orthogonalLoop=1;jettySize=auto;html=1;exitX=0;exitY=0.5;exitDx=0;exitDy=0;" parent="1" source="av6EYxAeEGvF4ukuJv1E-284" target="av6EYxAeEGvF4ukuJv1E-295" edge="1">
          <mxGeometry relative="1" as="geometry" />
        </mxCell>
        <mxCell id="av6EYxAeEGvF4ukuJv1E-298" style="edgeStyle=orthogonalEdgeStyle;rounded=0;orthogonalLoop=1;jettySize=auto;html=1;exitX=1;exitY=0.5;exitDx=0;exitDy=0;entryX=1;entryY=1;entryDx=0;entryDy=0;" parent="1" source="av6EYxAeEGvF4ukuJv1E-284" target="av6EYxAeEGvF4ukuJv1E-283" edge="1">
          <mxGeometry relative="1" as="geometry">
            <Array as="points">
              <mxPoint x="990" y="775" />
            </Array>
          </mxGeometry>
        </mxCell>
        <mxCell id="av6EYxAeEGvF4ukuJv1E-284" value="input" style="rhombus;whiteSpace=wrap;html=1;" parent="1" vertex="1">
          <mxGeometry x="895" y="744.97" width="70" height="60" as="geometry" />
        </mxCell>
        <mxCell id="av6EYxAeEGvF4ukuJv1E-291" style="edgeStyle=orthogonalEdgeStyle;rounded=0;orthogonalLoop=1;jettySize=auto;html=1;exitX=0.5;exitY=0;exitDx=0;exitDy=0;entryX=1;entryY=0.5;entryDx=0;entryDy=0;" parent="1" source="av6EYxAeEGvF4ukuJv1E-289" target="av6EYxAeEGvF4ukuJv1E-283" edge="1">
          <mxGeometry relative="1" as="geometry" />
        </mxCell>
        <mxCell id="av6EYxAeEGvF4ukuJv1E-289" value="learn[Number,n++] = readPot()" style="ellipse;whiteSpace=wrap;html=1;" parent="1" vertex="1">
          <mxGeometry x="1010" y="704.97" width="140" height="40" as="geometry" />
        </mxCell>
        <mxCell id="av6EYxAeEGvF4ukuJv1E-294" style="edgeStyle=orthogonalEdgeStyle;rounded=0;orthogonalLoop=1;jettySize=auto;html=1;exitX=1;exitY=0.5;exitDx=0;exitDy=0;entryX=0.5;entryY=1;entryDx=0;entryDy=0;" parent="1" source="av6EYxAeEGvF4ukuJv1E-292" target="av6EYxAeEGvF4ukuJv1E-289" edge="1">
          <mxGeometry relative="1" as="geometry" />
        </mxCell>
        <mxCell id="av6EYxAeEGvF4ukuJv1E-296" style="edgeStyle=orthogonalEdgeStyle;rounded=0;orthogonalLoop=1;jettySize=auto;html=1;exitX=0;exitY=0.5;exitDx=0;exitDy=0;" parent="1" source="av6EYxAeEGvF4ukuJv1E-292" target="av6EYxAeEGvF4ukuJv1E-295" edge="1">
          <mxGeometry relative="1" as="geometry" />
        </mxCell>
        <mxCell id="av6EYxAeEGvF4ukuJv1E-292" value="n&amp;lt;limitLearn" style="rhombus;whiteSpace=wrap;html=1;" parent="1" vertex="1">
          <mxGeometry x="880" y="830" width="100" height="60" as="geometry" />
        </mxCell>
        <mxCell id="av6EYxAeEGvF4ukuJv1E-295" value="selectAction" style="ellipse;whiteSpace=wrap;html=1;aspect=fixed;" parent="1" vertex="1">
          <mxGeometry x="800" y="990" width="70" height="70" as="geometry" />
        </mxCell>
        <mxCell id="av6EYxAeEGvF4ukuJv1E-300" value="" style="edgeStyle=orthogonalEdgeStyle;rounded=0;orthogonalLoop=1;jettySize=auto;html=1;exitX=1;exitY=0.5;exitDx=0;exitDy=0;entryX=0;entryY=0.5;entryDx=0;entryDy=0;" parent="1" source="av6EYxAeEGvF4ukuJv1E-123" target="av6EYxAeEGvF4ukuJv1E-287" edge="1">
          <mxGeometry relative="1" as="geometry">
            <mxPoint x="720" y="775" as="sourcePoint" />
            <mxPoint x="870" y="675" as="targetPoint" />
          </mxGeometry>
        </mxCell>
        <mxCell id="av6EYxAeEGvF4ukuJv1E-287" value="n = 0" style="ellipse;whiteSpace=wrap;html=1;" parent="1" vertex="1">
          <mxGeometry x="760" y="754.97" width="60" height="40" as="geometry" />
        </mxCell>
        <mxCell id="av6EYxAeEGvF4ukuJv1E-301" value="" style="edgeStyle=orthogonalEdgeStyle;rounded=0;orthogonalLoop=1;jettySize=auto;html=1;exitX=0.5;exitY=1;exitDx=0;exitDy=0;" parent="1" source="av6EYxAeEGvF4ukuJv1E-123" target="av6EYxAeEGvF4ukuJv1E-299" edge="1">
          <mxGeometry relative="1" as="geometry">
            <mxPoint x="640" y="815" as="sourcePoint" />
            <mxPoint x="640" y="990" as="targetPoint" />
          </mxGeometry>
        </mxCell>
        <mxCell id="av6EYxAeEGvF4ukuJv1E-302" value="~askNumber&amp;amp;&amp;amp;saveDelay" style="edgeLabel;html=1;align=center;verticalAlign=middle;resizable=0;points=[];" parent="av6EYxAeEGvF4ukuJv1E-301" connectable="0" vertex="1">
          <mxGeometry x="-0.0282" y="-2" relative="1" as="geometry">
            <mxPoint x="2" y="9" as="offset" />
          </mxGeometry>
        </mxCell>
        <mxCell id="av6EYxAeEGvF4ukuJv1E-299" value="DelayUpdate = number" style="ellipse;whiteSpace=wrap;html=1;" parent="1" vertex="1">
          <mxGeometry x="570" y="890" width="140" height="40" as="geometry" />
        </mxCell>
        <mxCell id="av6EYxAeEGvF4ukuJv1E-326" style="edgeStyle=orthogonalEdgeStyle;rounded=0;orthogonalLoop=1;jettySize=auto;html=1;exitX=0.5;exitY=1;exitDx=0;exitDy=0;" parent="1" source="av6EYxAeEGvF4ukuJv1E-323" target="av6EYxAeEGvF4ukuJv1E-324" edge="1">
          <mxGeometry relative="1" as="geometry" />
        </mxCell>
        <mxCell id="av6EYxAeEGvF4ukuJv1E-323" value="noInput:&lt;br&gt;now=readKeyboard()&amp;nbsp;" style="rounded=0;whiteSpace=wrap;html=1;" parent="1" vertex="1">
          <mxGeometry x="-1400" y="69.94" width="120" height="50" as="geometry" />
        </mxCell>
        <mxCell id="av6EYxAeEGvF4ukuJv1E-325" style="edgeStyle=orthogonalEdgeStyle;rounded=0;orthogonalLoop=1;jettySize=auto;html=1;exitX=0;exitY=0.5;exitDx=0;exitDy=0;entryX=0;entryY=0.5;entryDx=0;entryDy=0;" parent="1" source="av6EYxAeEGvF4ukuJv1E-324" target="av6EYxAeEGvF4ukuJv1E-323" edge="1">
          <mxGeometry relative="1" as="geometry" />
        </mxCell>
        <mxCell id="av6EYxAeEGvF4ukuJv1E-363" value="noKey" style="edgeLabel;html=1;align=center;verticalAlign=middle;resizable=0;points=[];" parent="av6EYxAeEGvF4ukuJv1E-325" connectable="0" vertex="1">
          <mxGeometry x="0.1571" y="-2" relative="1" as="geometry">
            <mxPoint as="offset" />
          </mxGeometry>
        </mxCell>
        <mxCell id="av6EYxAeEGvF4ukuJv1E-329" style="edgeStyle=orthogonalEdgeStyle;rounded=0;orthogonalLoop=1;jettySize=auto;html=1;exitX=0.5;exitY=1;exitDx=0;exitDy=0;entryX=0.5;entryY=0;entryDx=0;entryDy=0;" parent="1" source="m7Zk-dML2SDQ6RxFh4C7-1" target="av6EYxAeEGvF4ukuJv1E-328" edge="1">
          <mxGeometry relative="1" as="geometry" />
        </mxCell>
        <mxCell id="av6EYxAeEGvF4ukuJv1E-324" value="now" style="rhombus;whiteSpace=wrap;html=1;" parent="1" vertex="1">
          <mxGeometry x="-1390" y="140" width="100" height="40" as="geometry" />
        </mxCell>
        <mxCell id="av6EYxAeEGvF4ukuJv1E-334" style="edgeStyle=orthogonalEdgeStyle;rounded=0;orthogonalLoop=1;jettySize=auto;html=1;exitX=0.5;exitY=1;exitDx=0;exitDy=0;entryX=0.5;entryY=0;entryDx=0;entryDy=0;" parent="1" source="av6EYxAeEGvF4ukuJv1E-328" target="av6EYxAeEGvF4ukuJv1E-332" edge="1">
          <mxGeometry relative="1" as="geometry" />
        </mxCell>
        <mxCell id="av6EYxAeEGvF4ukuJv1E-328" value="firstTime:&lt;br&gt;now = readKeyboard()" style="rounded=0;whiteSpace=wrap;html=1;" parent="1" vertex="1">
          <mxGeometry x="-1410" y="259.94" width="140" height="40.06" as="geometry" />
        </mxCell>
        <mxCell id="av6EYxAeEGvF4ukuJv1E-338" style="edgeStyle=orthogonalEdgeStyle;rounded=0;orthogonalLoop=1;jettySize=auto;html=1;exitX=0.5;exitY=1;exitDx=0;exitDy=0;entryX=0.5;entryY=0;entryDx=0;entryDy=0;" parent="1" source="av6EYxAeEGvF4ukuJv1E-332" target="av6EYxAeEGvF4ukuJv1E-344" edge="1">
          <mxGeometry relative="1" as="geometry">
            <mxPoint x="-1340" y="339.94" as="targetPoint" />
            <mxPoint x="-1340" y="394.9100000000001" as="sourcePoint" />
          </mxGeometry>
        </mxCell>
        <mxCell id="m7Zk-dML2SDQ6RxFh4C7-4" value="=last" style="edgeLabel;html=1;align=center;verticalAlign=middle;resizable=0;points=[];" parent="av6EYxAeEGvF4ukuJv1E-338" connectable="0" vertex="1">
          <mxGeometry x="-0.2288" y="2" relative="1" as="geometry">
            <mxPoint x="-2" as="offset" />
          </mxGeometry>
        </mxCell>
        <mxCell id="av6EYxAeEGvF4ukuJv1E-347" style="edgeStyle=orthogonalEdgeStyle;rounded=0;orthogonalLoop=1;jettySize=auto;html=1;exitX=1;exitY=0.5;exitDx=0;exitDy=0;entryX=1;entryY=0.5;entryDx=0;entryDy=0;" parent="1" source="av6EYxAeEGvF4ukuJv1E-332" target="av6EYxAeEGvF4ukuJv1E-323" edge="1">
          <mxGeometry relative="1" as="geometry" />
        </mxCell>
        <mxCell id="av6EYxAeEGvF4ukuJv1E-348" value="noKey" style="edgeLabel;html=1;align=center;verticalAlign=middle;resizable=0;points=[];" parent="av6EYxAeEGvF4ukuJv1E-347" connectable="0" vertex="1">
          <mxGeometry x="-0.0442" y="-1" relative="1" as="geometry">
            <mxPoint as="offset" />
          </mxGeometry>
        </mxCell>
        <mxCell id="m7Zk-dML2SDQ6RxFh4C7-8" style="edgeStyle=orthogonalEdgeStyle;rounded=0;orthogonalLoop=1;jettySize=auto;html=1;exitX=0;exitY=0.5;exitDx=0;exitDy=0;entryX=0.5;entryY=1;entryDx=0;entryDy=0;" parent="1" source="av6EYxAeEGvF4ukuJv1E-332" target="m7Zk-dML2SDQ6RxFh4C7-6" edge="1">
          <mxGeometry relative="1" as="geometry" />
        </mxCell>
        <mxCell id="m7Zk-dML2SDQ6RxFh4C7-10" value="newKey" style="edgeLabel;html=1;align=center;verticalAlign=middle;resizable=0;points=[];" parent="m7Zk-dML2SDQ6RxFh4C7-8" connectable="0" vertex="1">
          <mxGeometry x="-0.0104" y="2" relative="1" as="geometry">
            <mxPoint as="offset" />
          </mxGeometry>
        </mxCell>
        <mxCell id="av6EYxAeEGvF4ukuJv1E-332" value="now" style="rhombus;whiteSpace=wrap;html=1;" parent="1" vertex="1">
          <mxGeometry x="-1410" y="340" width="140" height="40" as="geometry" />
        </mxCell>
        <mxCell id="av6EYxAeEGvF4ukuJv1E-350" style="edgeStyle=orthogonalEdgeStyle;rounded=0;orthogonalLoop=1;jettySize=auto;html=1;exitX=0.5;exitY=1;exitDx=0;exitDy=0;entryX=0.5;entryY=0;entryDx=0;entryDy=0;" parent="1" source="av6EYxAeEGvF4ukuJv1E-344" target="av6EYxAeEGvF4ukuJv1E-349" edge="1">
          <mxGeometry relative="1" as="geometry" />
        </mxCell>
        <mxCell id="av6EYxAeEGvF4ukuJv1E-344" value="SecondTime:&lt;br&gt;now= readKeyboard()" style="rounded=0;whiteSpace=wrap;html=1;" parent="1" vertex="1">
          <mxGeometry x="-1410" y="419.94" width="140" height="50" as="geometry" />
        </mxCell>
        <mxCell id="av6EYxAeEGvF4ukuJv1E-351" style="edgeStyle=orthogonalEdgeStyle;rounded=0;orthogonalLoop=1;jettySize=auto;html=1;exitX=0;exitY=0.5;exitDx=0;exitDy=0;entryX=0;entryY=0.5;entryDx=0;entryDy=0;" parent="1" source="av6EYxAeEGvF4ukuJv1E-349" target="av6EYxAeEGvF4ukuJv1E-344" edge="1">
          <mxGeometry relative="1" as="geometry" />
        </mxCell>
        <mxCell id="av6EYxAeEGvF4ukuJv1E-352" value="=last" style="edgeLabel;html=1;align=center;verticalAlign=middle;resizable=0;points=[];" parent="av6EYxAeEGvF4ukuJv1E-351" connectable="0" vertex="1">
          <mxGeometry x="-0.1701" y="-3" relative="1" as="geometry">
            <mxPoint x="-3" as="offset" />
          </mxGeometry>
        </mxCell>
        <mxCell id="av6EYxAeEGvF4ukuJv1E-355" style="edgeStyle=orthogonalEdgeStyle;rounded=0;orthogonalLoop=1;jettySize=auto;html=1;exitX=1;exitY=0.5;exitDx=0;exitDy=0;entryX=0.5;entryY=1;entryDx=0;entryDy=0;" parent="1" source="av6EYxAeEGvF4ukuJv1E-349" target="av6EYxAeEGvF4ukuJv1E-353" edge="1">
          <mxGeometry relative="1" as="geometry" />
        </mxCell>
        <mxCell id="av6EYxAeEGvF4ukuJv1E-356" value="noKey" style="edgeLabel;html=1;align=center;verticalAlign=middle;resizable=0;points=[];" parent="av6EYxAeEGvF4ukuJv1E-355" connectable="0" vertex="1">
          <mxGeometry x="-0.2308" y="-1" relative="1" as="geometry">
            <mxPoint x="-3" y="-1" as="offset" />
          </mxGeometry>
        </mxCell>
        <mxCell id="av6EYxAeEGvF4ukuJv1E-361" style="edgeStyle=orthogonalEdgeStyle;rounded=0;orthogonalLoop=1;jettySize=auto;html=1;exitX=0.5;exitY=1;exitDx=0;exitDy=0;" parent="1" source="av6EYxAeEGvF4ukuJv1E-349" target="av6EYxAeEGvF4ukuJv1E-359" edge="1">
          <mxGeometry relative="1" as="geometry" />
        </mxCell>
        <mxCell id="m7Zk-dML2SDQ6RxFh4C7-11" value="newKey" style="edgeLabel;html=1;align=center;verticalAlign=middle;resizable=0;points=[];" parent="av6EYxAeEGvF4ukuJv1E-361" connectable="0" vertex="1">
          <mxGeometry x="-0.23" relative="1" as="geometry">
            <mxPoint as="offset" />
          </mxGeometry>
        </mxCell>
        <mxCell id="av6EYxAeEGvF4ukuJv1E-349" value="now" style="rhombus;whiteSpace=wrap;html=1;" parent="1" vertex="1">
          <mxGeometry x="-1410" y="489.94" width="140" height="40" as="geometry" />
        </mxCell>
        <mxCell id="av6EYxAeEGvF4ukuJv1E-362" style="edgeStyle=orthogonalEdgeStyle;rounded=0;orthogonalLoop=1;jettySize=auto;html=1;exitX=0.5;exitY=0;exitDx=0;exitDy=0;entryX=1;entryY=0.5;entryDx=0;entryDy=0;" parent="1" source="av6EYxAeEGvF4ukuJv1E-353" target="av6EYxAeEGvF4ukuJv1E-323" edge="1">
          <mxGeometry relative="1" as="geometry" />
        </mxCell>
        <mxCell id="av6EYxAeEGvF4ukuJv1E-353" value="input&lt;span style=&quot;background-color: initial;&quot;&gt;= last&lt;/span&gt;&lt;div&gt;last= 0&lt;/div&gt;" style="ellipse;whiteSpace=wrap;html=1;" parent="1" vertex="1">
          <mxGeometry x="-1215" y="320" width="95" height="40" as="geometry" />
        </mxCell>
        <mxCell id="av6EYxAeEGvF4ukuJv1E-360" style="edgeStyle=orthogonalEdgeStyle;rounded=0;orthogonalLoop=1;jettySize=auto;html=1;exitX=0.5;exitY=0;exitDx=0;exitDy=0;entryX=0;entryY=0.5;entryDx=0;entryDy=0;" parent="1" source="av6EYxAeEGvF4ukuJv1E-359" target="av6EYxAeEGvF4ukuJv1E-328" edge="1">
          <mxGeometry relative="1" as="geometry" />
        </mxCell>
        <mxCell id="av6EYxAeEGvF4ukuJv1E-359" value="input= last&lt;br&gt;last = now" style="ellipse;whiteSpace=wrap;html=1;" parent="1" vertex="1">
          <mxGeometry x="-1590" y="360" width="95" height="40" as="geometry" />
        </mxCell>
        <mxCell id="av6EYxAeEGvF4ukuJv1E-364" value="ANTIREBOTE" style="shape=tape;whiteSpace=wrap;html=1;" parent="1" vertex="1">
          <mxGeometry x="-1590" width="120" height="100" as="geometry" />
        </mxCell>
        <mxCell id="av6EYxAeEGvF4ukuJv1E-365" value="GETNUMBER" style="shape=tape;whiteSpace=wrap;html=1;" parent="1" vertex="1">
          <mxGeometry x="-1120" y="-30.060000000000002" width="120" height="100" as="geometry" />
        </mxCell>
        <mxCell id="av6EYxAeEGvF4ukuJv1E-366" value="UPDATESERVO" style="shape=tape;whiteSpace=wrap;html=1;" parent="1" vertex="1">
          <mxGeometry x="-560" y="-20.000000000000004" width="120" height="100" as="geometry" />
        </mxCell>
        <mxCell id="av6EYxAeEGvF4ukuJv1E-367" value="MENU" style="shape=tape;whiteSpace=wrap;html=1;" parent="1" vertex="1">
          <mxGeometry x="410" y="-60" width="120" height="100" as="geometry" />
        </mxCell>
        <mxCell id="m7Zk-dML2SDQ6RxFh4C7-2" value="" style="edgeStyle=orthogonalEdgeStyle;rounded=0;orthogonalLoop=1;jettySize=auto;html=1;exitX=0.5;exitY=1;exitDx=0;exitDy=0;entryX=0.5;entryY=0;entryDx=0;entryDy=0;" parent="1" source="av6EYxAeEGvF4ukuJv1E-324" target="m7Zk-dML2SDQ6RxFh4C7-1" edge="1">
          <mxGeometry relative="1" as="geometry">
            <mxPoint x="-1340" y="180" as="sourcePoint" />
            <mxPoint x="-1340" y="255" as="targetPoint" />
          </mxGeometry>
        </mxCell>
        <mxCell id="m7Zk-dML2SDQ6RxFh4C7-1" value="last = now" style="ellipse;whiteSpace=wrap;html=1;" parent="1" vertex="1">
          <mxGeometry x="-1387.5" y="200.00000000000003" width="95" height="40" as="geometry" />
        </mxCell>
        <mxCell id="m7Zk-dML2SDQ6RxFh4C7-9" style="edgeStyle=orthogonalEdgeStyle;rounded=0;orthogonalLoop=1;jettySize=auto;html=1;exitX=0.5;exitY=0;exitDx=0;exitDy=0;entryX=0;entryY=0.5;entryDx=0;entryDy=0;" parent="1" source="m7Zk-dML2SDQ6RxFh4C7-6" target="av6EYxAeEGvF4ukuJv1E-328" edge="1">
          <mxGeometry relative="1" as="geometry" />
        </mxCell>
        <mxCell id="m7Zk-dML2SDQ6RxFh4C7-6" value="last = now" style="ellipse;whiteSpace=wrap;html=1;" parent="1" vertex="1">
          <mxGeometry x="-1505" y="300" width="95" height="40" as="geometry" />
        </mxCell>
      </root>
    </mxGraphModel>
  </diagram>
</mxfile>
